<svg width="34" height="30" viewBox="0 0 34 30" fill="none" xmlns="http://www.w3.org/2000/svg">
<path fill-rule="evenodd" clip-rule="evenodd" d="M10.2843 5.82316C14.7405 5.48098 19.2219 5.48098 23.6781 5.82316L25.8152 5.98726C27.8601 6.14428 29.5167 7.51884 29.822 9.31183C30.4639 13.0827 30.4639 16.9172 29.822 20.6881C29.7658 21.018 29.6639 21.3337 29.5223 21.6303C29.4283 21.8269 29.1386 21.8567 28.976 21.6988L22.7193 15.6193C22.4366 15.3447 21.9971 15.2432 21.5984 15.3606L18.017 16.4151L12.8216 11.2521C12.6274 11.0591 12.3517 10.9455 12.0595 10.9379C11.7673 10.9303 11.4845 11.0295 11.2778 11.2121L4.32389 17.3547C4.10987 17.5438 3.74486 17.4234 3.72779 17.1565C3.56048 14.5392 3.69801 11.9104 4.14038 9.31183C4.44561 7.51884 6.10222 6.14428 8.14713 5.98726L10.2843 5.82316ZM19.8113 11.25C19.8113 10.2144 20.7617 9.37497 21.934 9.37497C23.1063 9.37497 24.0566 10.2144 24.0566 11.25C24.0566 12.2855 23.1063 13.125 21.934 13.125C20.7617 13.125 19.8113 12.2855 19.8113 11.25Z" fill="black"/>
<path d="M4.19057 20.1241C4.11224 20.1933 4.07503 20.2909 4.09064 20.3878C4.10677 20.488 4.12335 20.588 4.14038 20.6881C4.44561 22.4811 6.10222 23.8556 8.14713 24.0127L10.2843 24.1768C14.7405 24.5189 19.2219 24.5189 23.6781 24.1768L25.8152 24.0127C26.4161 23.9665 26.9835 23.8153 27.4929 23.5791C27.6859 23.4897 27.7184 23.2642 27.5718 23.1217L21.7687 17.4831C21.6745 17.3915 21.528 17.3577 21.3951 17.3969L18.0243 18.3894C17.6215 18.508 17.1775 18.4031 16.8955 18.1228L12.2321 13.4886C12.0969 13.3543 11.8615 13.3481 11.7176 13.4753L4.19057 20.1241Z" fill="black"/>
</svg>
