<svg width="34" height="30" viewBox="0 0 34 30" fill="none" xmlns="http://www.w3.org/2000/svg">
<path d="M13.7972 16.25C13.7972 14.6967 15.2227 13.4375 16.9811 13.4375C18.7396 13.4375 20.1651 14.6967 20.1651 16.25C20.1651 17.8033 18.7396 19.0625 16.9811 19.0625C15.2227 19.0625 13.7972 17.8033 13.7972 16.25Z" fill="#0076BE"/>
<path fill-rule="evenodd" clip-rule="evenodd" d="M10.5759 9.55306C10.5759 7.38365 12.5669 5.625 15.0228 5.625H18.9394C21.3953 5.625 23.3862 7.38365 23.3862 9.55306C23.3862 9.57161 23.4024 9.58705 23.4233 9.58856L26.5784 9.8149C27.9917 9.91628 29.154 10.8395 29.4178 12.0701C30.0909 15.2105 30.1411 18.4303 29.5661 21.5859L29.4285 22.3411C29.1691 23.7648 27.8426 24.8479 26.2156 24.9646L23.467 25.1618C19.1502 25.4715 14.812 25.4715 10.4952 25.1618L7.74659 24.9646C6.11954 24.8479 4.79308 23.7648 4.53367 22.3411L4.39605 21.5859C3.82105 18.4303 3.87125 15.2105 4.54439 12.0701C4.80818 10.8395 5.97049 9.91628 7.38378 9.8149L10.5389 9.58856C10.5598 9.58705 10.5759 9.57161 10.5759 9.55306ZM16.9811 11.5625C14.0504 11.5625 11.6745 13.6612 11.6745 16.25C11.6745 18.8388 14.0504 20.9375 16.9811 20.9375C19.9119 20.9375 22.2877 18.8388 22.2877 16.25C22.2877 13.6612 19.9119 11.5625 16.9811 11.5625Z" fill="#0076BE"/>
</svg>
